<svg width="10" height="12" viewBox="0 0 10 12" fill="none" xmlns="http://www.w3.org/2000/svg">
<path d="M5.54008 6.89219L5 6.21086L4.45992 6.89219C4.28876 7.10809 4.0336 7.23199 3.75966 7.23199H0.689815C1.21733 9.18213 2.80939 11.675 4.73823 11.9826C4.82473 11.9964 4.91243 12 5 12C5.08757 12 5.17526 11.9964 5.26177 11.9826C7.19061 11.675 8.78267 9.18213 9.31018 7.23199H6.24034C5.9664 7.23199 5.71111 7.10822 5.54008 6.89219Z" fill="#7C8FA0"/>
<path d="M5.13148 0.0019431C5.13148 0.0019431 5.04709 -0.000326676 5.00476 7.38735e-05C4.95939 -0.000460192 4.86852 0.0020766 4.86852 0.0020766C3.12302 0.0426656 1.63598 0.517851 0.934524 2.6457H9.06534C8.36402 0.517851 6.87698 0.0425321 5.13148 0.0019431Z" fill="#7C8FA0"/>
<path d="M9.5 3.04625H0.5C0.225 3.04625 0 3.27336 0 3.55094V6.32675C0 6.60433 0.225 6.83144 0.5 6.83144H3.75966C3.91151 6.83144 4.05516 6.76175 4.15013 6.64198L4.80476 5.81592C4.90489 5.68961 5.09511 5.68961 5.19524 5.81592L5.84987 6.64198C5.94471 6.76175 6.08836 6.83144 6.24034 6.83144H9.5C9.775 6.83144 10 6.60433 10 6.32675V3.55094C10 3.27336 9.775 3.04625 9.5 3.04625ZM3.12209 4.62629L2.45952 5.3394L1.7922 4.62629C1.66005 4.48503 1.66005 4.25604 1.7922 4.11478C1.92434 3.97352 2.13876 3.97352 2.2709 4.11478L2.45701 4.31372L2.64325 4.11478C2.7754 3.97352 2.98981 3.97352 3.12196 4.11478C3.2541 4.25604 3.25423 4.48503 3.12209 4.62629ZM8.20767 4.62175L7.54524 5.33486L6.87791 4.62175C6.74577 4.48049 6.74577 4.2515 6.87791 4.11024C7.01005 3.96898 7.22447 3.96898 7.35661 4.11024L7.54286 4.30918L7.72897 4.11024C7.86111 3.96898 8.07553 3.96898 8.20767 4.11024C8.33995 4.25137 8.33995 4.48049 8.20767 4.62175Z" fill="#7C8FA0"/>
</svg>
